<svg width="40" height="39" viewBox="0 0 40 39" fill="none" xmlns="http://www.w3.org/2000/svg">
<g id="&#240;&#159;&#166;&#134; icon &#34;What&#39;s App&#34;">
<path id="Vector" d="M34.0089 6.45079C30.2679 2.89288 25.2857 0.936035 19.9911 0.936035C9.0625 0.936035 0.169643 9.37335 0.169643 19.7421C0.169643 23.0543 1.08036 26.2903 2.8125 29.1451L0 38.887L10.5089 36.2694C13.4018 37.7688 16.6607 38.5567 19.9821 38.5567H19.9911C30.9107 38.5567 40 30.1193 40 19.7506C40 14.7272 37.75 10.0087 34.0089 6.45079ZM19.9911 35.3884C17.0268 35.3884 14.125 34.6345 11.5982 33.2113L11 32.8725L4.76786 34.4227L6.42857 28.6538L6.03571 28.0608C4.38393 25.5703 3.51786 22.6986 3.51786 19.7421C3.51786 11.1269 10.9107 4.11274 20 4.11274C24.4018 4.11274 28.5357 5.73921 31.6429 8.69566C34.75 11.6521 36.6607 15.5743 36.6518 19.7506C36.6518 28.3743 29.0714 35.3884 19.9911 35.3884ZM29.0268 23.6812C28.5357 23.444 26.0982 22.3089 25.6429 22.1564C25.1875 21.9954 24.8571 21.9192 24.5268 22.3936C24.1964 22.868 23.25 23.9184 22.9554 24.2403C22.6696 24.5538 22.375 24.5961 21.8839 24.3589C18.9732 22.9781 17.0625 21.8938 15.1429 18.7679C14.6339 17.9377 15.6518 17.997 16.5982 16.2011C16.7589 15.8877 16.6786 15.6166 16.5536 15.3794C16.4286 15.1422 15.4375 12.8296 15.0268 11.8893C14.625 10.9744 14.2143 11.1015 13.9107 11.0845C13.625 11.0676 13.2946 11.0676 12.9643 11.0676C12.6339 11.0676 12.0982 11.1862 11.6429 11.6521C11.1875 12.1265 9.91071 13.2616 9.91071 15.5743C9.91071 17.8869 11.6875 20.1233 11.9286 20.4367C12.1786 20.7502 15.4196 25.4941 20.3929 27.5356C23.5357 28.8232 24.7679 28.9334 26.3393 28.7131C27.2946 28.5776 29.2679 27.578 29.6786 26.4767C30.0893 25.3755 30.0893 24.4352 29.9643 24.2403C29.8482 24.0285 29.5179 23.9099 29.0268 23.6812Z" fill="white"/>
</g>
</svg>
