<svg width="40" height="41" viewBox="0 0 40 41" fill="none" xmlns="http://www.w3.org/2000/svg">
<g id="&#240;&#159;&#166;&#134; icon &#34;Instagram&#34;">
<path id="Vector" d="M20.0045 10.5915C14.3291 10.5915 9.75125 15.1285 9.75125 20.7533C9.75125 26.378 14.3291 30.915 20.0045 30.915C25.6799 30.915 30.2577 26.378 30.2577 20.7533C30.2577 15.1285 25.6799 10.5915 20.0045 10.5915ZM20.0045 27.3597C16.3369 27.3597 13.3385 24.397 13.3385 20.7533C13.3385 17.1095 16.3279 14.1468 20.0045 14.1468C23.681 14.1468 26.6704 17.1095 26.6704 20.7533C26.6704 24.397 23.6721 27.3597 20.0045 27.3597ZM33.0686 10.1758C33.0686 11.4936 31.9978 12.546 30.6771 12.546C29.3475 12.546 28.2856 11.4847 28.2856 10.1758C28.2856 8.8669 29.3564 7.80562 30.6771 7.80562C31.9978 7.80562 33.0686 8.8669 33.0686 10.1758ZM39.8595 12.5814C39.7078 9.40639 38.976 6.59399 36.6291 4.27686C34.2911 1.95973 31.4534 1.23452 28.2499 1.07533C24.9481 0.889604 15.0519 0.889604 11.7501 1.07533C8.55549 1.22568 5.71779 1.95089 3.37089 4.26802C1.02398 6.58515 0.301171 9.39754 0.140547 12.5725C-0.0468489 15.8448 -0.0468489 25.6528 0.140547 28.9251C0.292248 32.1001 1.02398 34.9125 3.37089 37.2296C5.71779 39.5468 8.54657 40.272 11.7501 40.4312C15.0519 40.6169 24.9481 40.6169 28.2499 40.4312C31.4534 40.2808 34.2911 39.5556 36.6291 37.2296C38.9671 34.9125 39.6988 32.1001 39.8595 28.9251C40.0468 25.6528 40.0468 15.8537 39.8595 12.5814ZM35.594 32.4362C34.8979 34.1696 33.5505 35.5051 31.7925 36.2037C29.1601 37.2385 22.9136 36.9997 20.0045 36.9997C17.0954 36.9997 10.8399 37.2296 8.2164 36.2037C6.46737 35.5139 5.11991 34.1785 4.41495 32.4362C3.37089 29.8272 3.61182 23.6364 3.61182 20.7533C3.61182 17.8701 3.37981 11.6705 4.41495 9.07031C5.11099 7.33689 6.45845 6.00144 8.2164 5.30276C10.8489 4.26802 17.0954 4.5068 20.0045 4.5068C22.9136 4.5068 29.169 4.27686 31.7925 5.30276C33.5416 5.9926 34.889 7.32804 35.594 9.07031C36.638 11.6793 36.3971 17.8701 36.3971 20.7533C36.3971 23.6364 36.638 29.836 35.594 32.4362Z" fill="white"/>
</g>
</svg>
