<svg width="40" height="39" viewBox="0 0 40 39" fill="none" xmlns="http://www.w3.org/2000/svg">
<g id="&#240;&#159;&#166;&#134; icon &#34;Facebook Square&#34;">
<path id="Vector" d="M35.7143 0.936035H4.28571C3.14907 0.936035 2.05898 1.36443 1.25526 2.12699C0.451529 2.88955 0 3.9238 0 5.00221L0 34.8209C0 35.8993 0.451529 36.9335 1.25526 37.6961C2.05898 38.4586 3.14907 38.887 4.28571 38.887H16.5402V25.9845H10.9152V19.9115H16.5402V15.2829C16.5402 10.018 19.8438 7.10985 24.9036 7.10985C27.3268 7.10985 29.8607 7.51986 29.8607 7.51986V12.6873H27.0688C24.3179 12.6873 23.4598 14.307 23.4598 15.9682V19.9115H29.6009L28.6188 25.9845H23.4598V38.887H35.7143C36.8509 38.887 37.941 38.4586 38.7447 37.6961C39.5485 36.9335 40 35.8993 40 34.8209V5.00221C40 3.9238 39.5485 2.88955 38.7447 2.12699C37.941 1.36443 36.8509 0.936035 35.7143 0.936035Z" fill="white"/>
</g>
</svg>
